C:\GBW_MyPrograms\KinderuniversiteitApp\Resultaten\Ellis\Smurf\Smurf_v2.mot
version=1
nRows=8
nColumns=29
inDegrees=yes
endheader
                time	         pelvis_tilt	           pelvis_tx	           pelvis_ty	       hip_flexion_l	       hip_flexion_r	        knee_angle_l	        knee_angle_r	       ankle_angle_l	       ankle_angle_r	    lumbar_extension	hamstrings_r/activation	bifemsh_r/activation	glut_max_r/activation	iliopsoas_r/activation	rect_fem_r/activation	  vasti_r/activation	gastroc_r/activation	 soleus_r/activation	tib_ant_r/activation	hamstrings_l/activation	bifemsh_l/activation	glut_max_l/activation	iliopsoas_l/activation	rect_fem_l/activation	  vasti_l/activation	gastroc_l/activation	 soleus_l/activation	tib_ant_l/activation	
          0.00000000	         -8.69154062	          0.00000000	          0.91198209	          5.08448632	         25.95554011	         -0.63899647	        -13.82204148	         11.67204896	          1.94126825	          1.31041592	          0.05000000	          0.05000000	          0.05000000	          0.17774329	          0.18376521	          0.08231547	          0.05000000	          0.05000000	          0.25398760	          0.05000000	          0.05000000	          0.05000000	          0.34290963	          0.16121737	          0.05000000	          0.05000001	          0.05995963	          0.08364610	
          0.02000000	         -8.71513334	          0.00683436	          0.91162267	          4.65621276	         24.83421730	         -0.71987046	        -12.41824223	         12.06242358	          1.39297301	          1.57295242	          0.05000000	          0.05000000	          0.05000000	          0.13330747	          0.19857228	          0.13943625	          0.05000000	          0.05000000	          0.24649814	          0.05000000	          0.05000001	          0.05000000	          0.27688861	          0.14777359	          0.05000000	          0.05000003	          0.08237409	          0.06273458	
          0.04000000	         -8.71919767	          0.01415088	          0.91141612	          4.18441389	         23.55762164	         -0.81587683	        -10.90288824	         12.40803462	          1.03618029	          1.86413847	          0.05000000	          0.05000000	          0.10985108	          0.09998060	          0.23110015	          0.24345746	          0.05000000	          0.05000000	          0.29626245	          0.05000000	          0.05000000	          0.05000000	          0.21357116	          0.15518857	          0.05750744	          0.05000000	          0.10022282	          0.05000000	
          0.06000000	         -8.70510338	          0.02175065	          0.91151386	          3.68162701	         22.25325773	         -0.91840741	         -9.42002195	         12.67446476	          0.84593249	          2.16255511	          0.05000000	          0.05000000	          0.20065709	          0.07498545	          0.25908593	          0.32356908	          0.05000000	          0.05000000	          0.30792337	          0.05000000	          0.05000000	          0.05000000	          0.19412171	          0.16059466	          0.09415687	          0.05000000	          0.10839783	          0.05000000	
          0.08000000	         -8.67373656	          0.02946340	          0.91192525	          3.15456237	         20.99383399	         -1.01352235	         -8.07698930	         12.83678795	          0.82344006	          2.45065790	          0.05000000	          0.05000000	          0.25608700	          0.05623909	          0.27539805	          0.37603119	          0.05000000	          0.05000000	          0.29440341	          0.05000000	          0.05000000	          0.05000000	          0.17227400	          0.16254357	          0.11470912	          0.05000000	          0.11124382	          0.05000000	
          0.10000000	         -8.62565732	          0.03717911	          0.91253087	          2.60675202	         19.78637927	         -1.09204171	         -6.87162552	         12.89236985	          0.94051934	          2.71848152	          0.05000000	          0.05000000	          0.27498128	          0.05000000	          0.27269161	          0.39531347	          0.05000000	          0.05000000	          0.29781202	          0.05000000	          0.05000000	          0.05000000	          0.13876712	          0.15446249	          0.11929905	          0.05000000	          0.11750748	          0.05000000	
          0.12000000	         -8.56136666	          0.04482693	          0.91317496	          2.03840520	         18.62118421	         -1.14642072	         -5.77334977	         12.86507743	          1.14092992	          2.96076876	          0.05000000	          0.05000000	          0.27191013	          0.05000000	          0.25337652	          0.38820817	          0.05000000	          0.05000000	          0.30832167	          0.05000000	          0.05000000	          0.05000000	          0.10407560	          0.14032265	          0.11658299	          0.05000000	          0.12906640	          0.05000000	
          0.14000000	         -8.48190047	          0.05235043	          0.91373805	          1.44894835	         17.49784460	         -1.16968775	         -4.77113387	         12.79168603	          1.39214980	          3.17432490	          0.05000000	          0.05000000	          0.25838061	          0.05000000	          0.22154476	          0.36298051	          0.05000000	          0.05000000	          0.32070982	          0.05000000	          0.05000000	          0.05000000	          0.07805671	          0.12037466	          0.11136101	          0.05000000	          0.14530630	          0.05000000	
